<svg version="1.1" id="Layer_1" xmlns="http://www.w3.org/2000/svg" xmlns:xlink="http://www.w3.org/1999/xlink" x="0px" y="0px"
	 width="100%" viewBox="0 0 2172 724" enable-background="new 0 0 2172 724" xml:space="preserve">
<path fill="#061E14" opacity="1.000000" stroke="none" 
	d="
M2078.000000,725.000000 
	C1385.392944,725.000000 693.285950,725.000000 1.089485,725.000000 
	C1.089485,483.747162 1.089485,242.494263 1.089485,1.120685 
	C725.000000,1.120685 1449.000000,1.120685 2172.995605,1.120685 
	C2172.995605,242.380920 2172.995605,483.690460 2172.993164,725.000000 
	C2141.493896,725.000000 2109.997070,725.000000 2078.000000,725.000000 
M785.047668,499.828186 
	C750.288757,499.853058 715.529602,499.834259 680.771545,500.021576 
	C678.876465,500.031799 676.990723,501.762573 675.100586,502.692444 
	C676.739014,503.950409 678.377502,505.208374 680.348022,507.143463 
	C682.090271,507.425049 683.831970,507.947815 685.574829,507.951874 
	C709.547668,508.008087 733.520752,507.994873 757.493713,507.994781 
	C842.065063,507.994446 926.636414,508.002899 1011.207703,507.926208 
	C1013.134033,507.924469 1015.059387,506.952057 1017.897644,506.198456 
	C1025.046387,506.173828 1032.201416,506.296875 1039.338257,505.993011 
	C1040.674438,505.936157 1041.937744,504.170441 1043.234619,503.193298 
	C1042.028442,502.087585 1040.907959,500.859070 1039.577026,499.932434 
	C1038.987793,499.522247 1037.973145,499.723175 1036.674316,498.880432 
	C1035.253540,498.586243 1033.832764,498.035309 1032.411865,498.034607 
	C951.849182,497.995117 871.286499,497.991943 790.723877,498.070526 
	C789.106384,498.072113 787.489990,499.080658 785.047668,499.828186 
M1529.774170,498.964661 
	C1528.814697,499.188049 1527.855103,499.411438 1526.222778,499.846283 
	C1524.808838,499.776947 1523.395020,499.707611 1521.681274,498.934357 
	C1520.956421,498.627991 1520.232422,498.056732 1519.506470,498.054199 
	C1503.746582,497.999695 1487.986450,497.976868 1472.227173,498.074921 
	C1471.152954,498.081573 1470.085083,499.086273 1468.130005,499.830536 
	C1465.415039,499.761749 1462.700195,499.692993 1459.679932,498.923401 
	C1458.953491,498.620514 1458.228027,498.056122 1457.500488,498.053375 
	C1443.074707,497.998871 1428.648560,497.974915 1414.223389,498.076813 
	C1413.150146,498.084381 1412.083862,499.089111 1410.122192,499.834412 
	C1407.076660,499.766937 1404.031006,499.699432 1400.682007,498.929779 
	C1399.287354,498.621582 1397.892700,498.044586 1396.497925,498.043701 
	C1326.577271,497.998901 1256.656738,497.992645 1186.736206,498.069458 
	C1185.113770,498.071259 1183.492432,499.069763 1181.091675,499.811554 
	C1170.626465,499.836121 1160.157715,499.729584 1149.699951,500.021423 
	C1148.061646,500.067169 1146.473755,501.922577 1144.862549,502.941162 
	C1146.438721,504.003021 1147.937012,505.810974 1149.605835,505.985107 
	C1154.371948,506.482422 1159.207153,506.315521 1164.332520,507.100159 
	C1166.234741,507.396240 1168.136719,507.947876 1170.039307,507.950623 
	C1206.683350,508.003204 1243.327393,507.993317 1279.971436,507.992584 
	C1361.754272,507.990906 1443.537109,507.998474 1525.319824,507.913452 
	C1527.209229,507.911499 1529.097412,506.855194 1531.553223,505.937897 
	C1535.023071,502.939758 1533.656372,501.044830 1529.774170,498.964661 
M804.520447,427.023590 
	C802.630676,426.688873 800.741516,426.066498 798.851013,426.062439 
	C768.538757,425.997192 738.225403,425.901276 707.914551,426.116608 
	C702.992249,426.151611 701.880188,424.586792 701.893494,419.900909 
	C702.048035,365.605377 702.005859,311.309204 701.941528,257.013336 
	C701.939148,254.985092 701.179138,252.957733 700.080994,250.533478 
	C692.315063,250.533478 684.549194,250.533478 676.544434,250.533478 
	C676.544434,317.214417 676.544434,383.754211 676.544434,450.527527 
	C719.461121,450.527527 762.042542,450.527527 804.802429,450.527527 
	C804.802429,442.791046 804.802429,435.325623 804.520447,427.023590 
M1330.259033,443.730530 
	C1341.859131,435.846893 1349.043457,424.760345 1353.906494,411.502106 
	C1346.352905,409.673828 1339.144409,407.929077 1332.045776,406.210907 
	C1318.871826,430.390778 1298.256470,438.996796 1273.902344,430.775391 
	C1255.281006,424.489227 1241.447632,404.201538 1244.336182,386.791351 
	C1281.313721,386.791351 1318.376221,386.791351 1356.233887,386.791351 
	C1355.811279,378.652557 1355.994019,370.964661 1354.911255,363.459351 
	C1351.860962,342.315155 1341.740967,325.515289 1322.662964,315.028839 
	C1282.539062,292.974365 1224.959717,314.971130 1220.744751,370.568451 
	C1219.205444,390.872894 1221.875488,410.312378 1234.200317,427.144257 
	C1255.667236,456.461487 1297.804321,463.764526 1330.259033,443.730530 
M988.057495,386.917847 
	C988.841003,385.821991 990.263306,384.745941 990.297974,383.626892 
	C990.452515,378.639526 990.393677,373.628296 990.081177,368.646484 
	C988.379883,341.529541 972.116394,319.333557 947.856567,310.851105 
	C920.940186,301.439819 891.043457,308.521393 873.009155,328.492737 
	C857.894775,345.230377 853.995422,365.332214 855.208130,387.018982 
	C857.361816,425.535339 883.221497,452.491058 920.288147,454.496613 
	C942.293396,455.687256 962.191040,450.464935 976.720581,432.666016 
	C981.724487,426.536163 985.093994,419.072144 989.576721,411.607025 
	C980.757019,409.543640 973.553894,407.858459 966.488525,406.205505 
	C954.776489,429.014343 935.902588,437.813385 912.076660,431.953644 
	C891.791931,426.964844 877.948853,408.744202 878.258423,386.921661 
	C914.543396,386.921661 950.837524,386.921661 988.057495,386.917847 
M1459.288208,296.499512 
	C1459.288208,340.574249 1459.288208,384.648956 1459.288208,429.065094 
	C1441.540527,429.065094 1424.429077,429.065094 1407.065796,429.065094 
	C1407.065796,436.334381 1407.065796,443.260651 1407.065796,450.410950 
	C1448.939697,450.410950 1490.627197,450.410950 1532.368652,450.410950 
	C1532.368652,443.150848 1532.368652,436.261780 1532.368652,428.863586 
	C1515.435059,428.863586 1498.881958,428.863586 1481.954346,428.863586 
	C1481.954346,369.114868 1481.954346,309.885345 1481.954346,250.446854 
	C1458.373413,250.446854 1435.184692,250.446854 1411.885498,250.446854 
	C1411.885498,257.730652 1411.885498,264.673340 1411.885498,272.112122 
	C1427.721313,272.112122 1443.302246,272.112122 1459.285522,272.112122 
	C1459.285522,280.236877 1459.285522,287.868225 1459.288208,296.499512 
M1169.452515,329.184052 
	C1171.589233,323.294830 1173.725952,317.405609 1176.092041,310.884003 
	C1168.675049,310.884003 1162.025146,311.077057 1155.394287,310.805634 
	C1151.876465,310.661621 1150.232422,311.667480 1149.047974,315.200897 
	C1135.882080,354.476410 1122.483521,393.673828 1109.250000,432.926849 
	C1108.444092,435.317444 1107.474609,437.108673 1104.871826,436.258301 
	C1103.368896,435.767212 1101.503052,434.429016 1101.029419,433.050079 
	C1096.817627,420.785095 1092.969360,408.395935 1088.844116,396.100342 
	C1079.695068,368.830963 1070.475952,341.584869 1061.157837,314.373016 
	C1060.686279,312.995880 1059.053467,311.075104 1057.894775,311.027466 
	C1050.491943,310.722778 1043.070557,310.872192 1035.303467,310.872192 
	C1035.898315,312.811951 1036.244751,314.088531 1036.678467,315.334656 
	C1042.803955,332.928925 1049.083008,350.471161 1055.042236,368.121399 
	C1063.924438,394.428833 1072.545776,420.824371 1081.436890,447.128754 
	C1081.930664,448.589386 1083.853394,450.579468 1085.142334,450.603027 
	C1098.942627,450.854828 1112.749023,450.759705 1126.526245,450.759705 
	C1140.827881,410.266876 1155.015625,370.096588 1169.452515,329.184052 
M1121.705200,488.854156 
	C1120.772827,487.280640 1119.921997,485.651520 1118.895020,484.142395 
	C1110.451172,471.735229 1093.439575,467.385529 1079.795044,474.111603 
	C1065.684692,481.067291 1058.913086,497.075623 1063.749268,512.044434 
	C1068.552124,526.909973 1083.397461,535.914185 1098.366943,533.472168 
	C1118.290161,530.222046 1130.297363,508.190613 1121.705200,488.854156 
z"/>
<path fill="#F2F1ED" opacity="1.000000" stroke="none" 
	d="
M1329.954834,443.919739 
	C1297.804321,463.764526 1255.667236,456.461487 1234.200317,427.144257 
	C1221.875488,410.312378 1219.205444,390.872894 1220.744751,370.568451 
	C1224.959717,314.971130 1282.539062,292.974365 1322.662964,315.028839 
	C1341.740967,325.515289 1351.860962,342.315155 1354.911255,363.459351 
	C1355.994019,370.964661 1355.811279,378.652557 1356.233887,386.791351 
	C1318.376221,386.791351 1281.313721,386.791351 1244.336182,386.791351 
	C1241.447632,404.201538 1255.281006,424.489227 1273.902344,430.775391 
	C1298.256470,438.996796 1318.871826,430.390778 1332.045776,406.210907 
	C1339.144409,407.929077 1346.352905,409.673828 1353.906494,411.502106 
	C1349.043457,424.760345 1341.859131,435.846893 1329.954834,443.919739 
M1313.499268,366.257080 
	C1319.917847,366.257080 1326.336426,366.257080 1332.789185,366.257080 
	C1331.096436,342.736969 1310.889404,326.989594 1285.395142,328.586487 
	C1263.297363,329.970581 1243.539062,348.053436 1244.584717,366.261322 
	C1267.210449,366.261322 1289.855103,366.261322 1313.499268,366.257080 
z"/>
<path fill="#F2F1EE" opacity="1.000000" stroke="none" 
	d="
M987.594543,386.919739 
	C950.837524,386.921661 914.543396,386.921661 878.258423,386.921661 
	C877.948853,408.744202 891.791931,426.964844 912.076660,431.953644 
	C935.902588,437.813385 954.776489,429.014343 966.488525,406.205505 
	C973.553894,407.858459 980.757019,409.543640 989.576721,411.607025 
	C985.093994,419.072144 981.724487,426.536163 976.720581,432.666016 
	C962.191040,450.464935 942.293396,455.687256 920.288147,454.496613 
	C883.221497,452.491058 857.361816,425.535339 855.208130,387.018982 
	C853.995422,365.332214 857.894775,345.230377 873.009155,328.492737 
	C891.043457,308.521393 920.940186,301.439819 947.856567,310.851105 
	C972.116394,319.333557 988.379883,341.529541 990.081177,368.646484 
	C990.393677,373.628296 990.452515,378.639526 990.297974,383.626892 
	C990.263306,384.745941 988.841003,385.821991 987.594543,386.919739 
M931.989319,329.046143 
	C920.293579,327.674072 909.017517,328.866394 898.760498,335.106323 
	C887.219543,342.127350 880.388794,352.259888 878.711975,365.863739 
	C908.447632,365.863739 937.649963,365.863739 967.103271,365.863739 
	C966.821777,363.836243 966.705322,362.172363 966.349487,360.561340 
	C962.354309,342.471039 950.277710,332.974091 931.989319,329.046143 
z"/>
<path fill="#F1F1ED" opacity="1.000000" stroke="none" 
	d="
M1459.286865,295.999542 
	C1459.285522,287.868225 1459.285522,280.236877 1459.285522,272.112122 
	C1443.302246,272.112122 1427.721313,272.112122 1411.885498,272.112122 
	C1411.885498,264.673340 1411.885498,257.730652 1411.885498,250.446854 
	C1435.184692,250.446854 1458.373413,250.446854 1481.954346,250.446854 
	C1481.954346,309.885345 1481.954346,369.114868 1481.954346,428.863586 
	C1498.881958,428.863586 1515.435059,428.863586 1532.368652,428.863586 
	C1532.368652,436.261780 1532.368652,443.150848 1532.368652,450.410950 
	C1490.627197,450.410950 1448.939697,450.410950 1407.065796,450.410950 
	C1407.065796,443.260651 1407.065796,436.334381 1407.065796,429.065094 
	C1424.429077,429.065094 1441.540527,429.065094 1459.288208,429.065094 
	C1459.288208,384.648956 1459.288208,340.574249 1459.286865,295.999542 
z"/>
<path fill="#EFEFEB" opacity="1.000000" stroke="none" 
	d="
M804.802429,427.860168 
	C804.802429,435.325623 804.802429,442.791046 804.802429,450.527527 
	C762.042542,450.527527 719.461121,450.527527 676.544434,450.527527 
	C676.544434,383.754211 676.544434,317.214417 676.544434,250.533478 
	C684.549194,250.533478 692.315063,250.533478 700.364258,251.202042 
	C700.647522,310.439453 700.647522,369.008301 700.647522,427.860168 
	C735.847717,427.860168 770.325073,427.860168 804.802429,427.860168 
z"/>
<path fill="#F2F1EE" opacity="1.000000" stroke="none" 
	d="
M1169.327881,329.555176 
	C1155.015625,370.096588 1140.827881,410.266876 1126.526245,450.759705 
	C1112.749023,450.759705 1098.942627,450.854828 1085.142334,450.603027 
	C1083.853394,450.579468 1081.930664,448.589386 1081.436890,447.128754 
	C1072.545776,420.824371 1063.924438,394.428833 1055.042236,368.121399 
	C1049.083008,350.471161 1042.803955,332.928925 1036.678467,315.334656 
	C1036.244751,314.088531 1035.898315,312.811951 1035.303467,310.872192 
	C1043.070557,310.872192 1050.491943,310.722778 1057.894775,311.027466 
	C1059.053467,311.075104 1060.686279,312.995880 1061.157837,314.373016 
	C1070.475952,341.584869 1079.695068,368.830963 1088.844116,396.100342 
	C1092.969360,408.395935 1096.817627,420.785095 1101.029419,433.050079 
	C1101.503052,434.429016 1103.368896,435.767212 1104.871826,436.258301 
	C1107.474609,437.108673 1108.444092,435.317444 1109.250000,432.926849 
	C1122.483521,393.673828 1135.882080,354.476410 1149.047974,315.200897 
	C1150.232422,311.667480 1151.876465,310.661621 1155.394287,310.805634 
	C1162.025146,311.077057 1168.675049,310.884003 1176.092041,310.884003 
	C1173.725952,317.405609 1171.589233,323.294830 1169.327881,329.555176 
z"/>
<path fill="#F4F4F0" opacity="1.000000" stroke="none" 
	d="
M1459.985229,499.624207 
	C1462.700195,499.692993 1465.415039,499.761749 1469.031860,499.820435 
	C1487.282837,499.752991 1504.631958,499.695618 1521.981079,499.638275 
	C1523.395020,499.707611 1524.808838,499.776947 1526.956543,499.834106 
	C1528.499390,499.763000 1529.308716,499.704102 1530.117920,499.645203 
	C1533.656372,501.044830 1535.023071,502.939758 1530.804321,506.064026 
	C1409.532959,506.187805 1289.010498,506.184662 1168.488037,506.192596 
	C1166.997070,506.192719 1165.506226,506.334381 1164.015259,506.409912 
	C1159.207153,506.315521 1154.371948,506.482422 1149.605835,505.985107 
	C1147.937012,505.810974 1146.438721,504.003021 1144.862549,502.941162 
	C1146.473755,501.922577 1148.061646,500.067169 1149.699951,500.021423 
	C1160.157715,499.729584 1170.626465,499.836121 1181.908813,499.798340 
	C1248.325928,499.808380 1313.926025,499.838745 1379.526001,499.844818 
	C1386.679199,499.845490 1393.832275,499.706329 1400.985474,499.631958 
	C1404.031006,499.699432 1407.076660,499.766937 1411.028320,499.822327 
	C1427.951416,499.748230 1443.968262,499.686218 1459.985229,499.624207 
z"/>
<path fill="#F4F4EF" opacity="1.000000" stroke="none" 
	d="
M680.015930,506.466370 
	C678.377502,505.208374 676.739014,503.950409 675.100586,502.692444 
	C676.990723,501.762573 678.876465,500.031799 680.771545,500.021576 
	C715.529602,499.834259 750.288757,499.853058 785.894409,499.813843 
	C846.724731,499.811188 906.708313,499.841309 966.691833,499.825287 
	C990.178406,499.819031 1013.665039,499.709259 1037.151611,499.646667 
	C1037.973145,499.723175 1038.987793,499.522247 1039.577026,499.932434 
	C1040.907959,500.859070 1042.028442,502.087585 1043.234619,503.193298 
	C1041.937744,504.170441 1040.674438,505.936157 1039.338257,505.993011 
	C1032.201416,506.296875 1025.046387,506.173828 1016.983521,506.214081 
	C914.198303,506.228394 812.327209,506.220306 710.456055,506.236298 
	C700.309326,506.237885 690.162659,506.386169 680.015930,506.466370 
z"/>
<path fill="#ECEDE8" opacity="1.000000" stroke="none" 
	d="
M1121.856201,489.202759 
	C1130.297363,508.190613 1118.290161,530.222046 1098.366943,533.472168 
	C1083.397461,535.914185 1068.552124,526.909973 1063.749268,512.044434 
	C1058.913086,497.075623 1065.684692,481.067291 1079.795044,474.111603 
	C1093.439575,467.385529 1110.451172,471.735229 1118.895020,484.142395 
	C1119.921997,485.651520 1120.772827,487.280640 1121.856201,489.202759 
M1118.532471,503.406342 
	C1118.897827,488.025757 1107.642822,476.444519 1092.656616,476.780426 
	C1078.258667,477.103149 1067.260620,489.411743 1068.311768,504.697845 
	C1068.512085,505.843842 1068.684692,506.995483 1068.916992,508.134949 
	C1071.480957,520.712097 1082.938965,529.037781 1096.188599,527.960754 
	C1108.038452,526.997559 1117.689331,516.480225 1118.532471,503.406342 
z"/>
<path fill="#000F07" opacity="1.000000" stroke="none" 
	d="
M1164.173828,506.755066 
	C1165.506226,506.334381 1166.997070,506.192719 1168.488037,506.192596 
	C1289.010498,506.184662 1409.532959,506.187805 1530.520752,506.240417 
	C1529.097412,506.855194 1527.209229,507.911499 1525.319824,507.913452 
	C1443.537109,507.998474 1361.754272,507.990906 1279.971436,507.992584 
	C1243.327393,507.993317 1206.683350,508.003204 1170.039307,507.950623 
	C1168.136719,507.947876 1166.234741,507.396240 1164.173828,506.755066 
z"/>
<path fill="#000F07" opacity="1.000000" stroke="none" 
	d="
M680.182007,506.804932 
	C690.162659,506.386169 700.309326,506.237885 710.456055,506.236298 
	C812.327209,506.220306 914.198303,506.228394 1016.527344,506.331055 
	C1015.059387,506.952057 1013.134033,507.924469 1011.207703,507.926208 
	C926.636414,508.002899 842.065063,507.994446 757.493713,507.994781 
	C733.520752,507.994873 709.547668,508.008087 685.574829,507.951874 
	C683.831970,507.947815 682.090271,507.425049 680.182007,506.804932 
z"/>
<path fill="#000F07" opacity="1.000000" stroke="none" 
	d="
M1036.912964,499.263550 
	C1013.665039,499.709259 990.178406,499.819031 966.691833,499.825287 
	C906.708313,499.841309 846.724731,499.811188 786.307129,499.709473 
	C787.489990,499.080658 789.106384,498.072113 790.723877,498.070526 
	C871.286499,497.991943 951.849182,497.995117 1032.411865,498.034607 
	C1033.832764,498.035309 1035.253540,498.586243 1036.912964,499.263550 
z"/>
<path fill="#000F07" opacity="1.000000" stroke="none" 
	d="
M1400.833740,499.280884 
	C1393.832275,499.706329 1386.679199,499.845490 1379.526001,499.844818 
	C1313.926025,499.838745 1248.325928,499.808380 1182.298340,499.694214 
	C1183.492432,499.069763 1185.113770,498.071259 1186.736206,498.069458 
	C1256.656738,497.992645 1326.577271,497.998901 1396.497925,498.043701 
	C1397.892700,498.044586 1399.287354,498.621582 1400.833740,499.280884 
z"/>
<path fill="#000801" opacity="1.000000" stroke="none" 
	d="
M804.661438,427.441895 
	C770.325073,427.860168 735.847717,427.860168 700.647522,427.860168 
	C700.647522,369.008301 700.647522,310.439453 700.709839,251.400269 
	C701.179138,252.957733 701.939148,254.985092 701.941528,257.013336 
	C702.005859,311.309204 702.048035,365.605377 701.893494,419.900909 
	C701.880188,424.586792 702.992249,426.151611 707.914551,426.116608 
	C738.225403,425.901276 768.538757,425.997192 798.851013,426.062439 
	C800.741516,426.066498 802.630676,426.688873 804.661438,427.441895 
z"/>
<path fill="#000F07" opacity="1.000000" stroke="none" 
	d="
M1521.831177,499.286316 
	C1504.631958,499.695618 1487.282837,499.752991 1469.473999,499.718567 
	C1470.085083,499.086273 1471.152954,498.081573 1472.227173,498.074921 
	C1487.986450,497.976868 1503.746582,497.999695 1519.506470,498.054199 
	C1520.232422,498.056732 1520.956421,498.627991 1521.831177,499.286316 
z"/>
<path fill="#000F07" opacity="1.000000" stroke="none" 
	d="
M1459.832520,499.273804 
	C1443.968262,499.686218 1427.951416,499.748230 1411.474365,499.720276 
	C1412.083862,499.089111 1413.150146,498.084381 1414.223389,498.076813 
	C1428.648560,497.974915 1443.074707,497.998871 1457.500488,498.053375 
	C1458.228027,498.056122 1458.953491,498.620514 1459.832520,499.273804 
z"/>
<path fill="#000F07" opacity="1.000000" stroke="none" 
	d="
M1529.946045,499.304932 
	C1529.308716,499.704102 1528.499390,499.763000 1527.292969,499.728363 
	C1527.855103,499.411438 1528.814697,499.188049 1529.946045,499.304932 
z"/>
<path fill="#082016" opacity="1.000000" stroke="none" 
	d="
M1312.999512,366.259216 
	C1289.855103,366.261322 1267.210449,366.261322 1244.584717,366.261322 
	C1243.539062,348.053436 1263.297363,329.970581 1285.395142,328.586487 
	C1310.889404,326.989594 1331.096436,342.736969 1332.789185,366.257080 
	C1326.336426,366.257080 1319.917847,366.257080 1312.999512,366.259216 
z"/>
<path fill="#082016" opacity="1.000000" stroke="none" 
	d="
M932.430786,329.109283 
	C950.277710,332.974091 962.354309,342.471039 966.349487,360.561340 
	C966.705322,362.172363 966.821777,363.836243 967.103271,365.863739 
	C937.649963,365.863739 908.447632,365.863739 878.711975,365.863739 
	C880.388794,352.259888 887.219543,342.127350 898.760498,335.106323 
	C909.017517,328.866394 920.293579,327.674072 932.430786,329.109283 
z"/>
<path fill="#0B2117" opacity="1.000000" stroke="none" 
	d="
M1068.393066,503.935303 
	C1067.260620,489.411743 1078.258667,477.103149 1092.656616,476.780426 
	C1107.642822,476.444519 1118.897827,488.025757 1117.861328,503.687744 
	C1100.924438,503.957855 1084.658691,503.946594 1068.393066,503.935303 
z"/>
<path fill="#BCE533" opacity="1.000000" stroke="none" 
	d="
M1068.352417,504.316589 
	C1084.658691,503.946594 1100.924438,503.957855 1117.671143,503.997162 
	C1117.689331,516.480225 1108.038452,526.997559 1096.188599,527.960754 
	C1082.938965,529.037781 1071.480957,520.712097 1068.916992,508.134949 
	C1068.684692,506.995483 1068.512085,505.843842 1068.352417,504.316589 
z"/>
</svg>