<svg version="1.1" id="Layer_1" xmlns="http://www.w3.org/2000/svg" xmlns:xlink="http://www.w3.org/1999/xlink" x="0px" y="0px"
	 width="100%" viewBox="0 0 1254 1254" enable-background="new 0 0 1254 1254" xml:space="preserve">
<path fill="#092216" opacity="1.000000" stroke="none" 
	d="
M1255.000000,1094.000000 
	C1255.000000,1095.066406 1255.000000,1096.132935 1254.625244,1097.678345 
	C1253.873169,1098.659790 1253.305908,1099.108521 1253.146362,1099.672729 
	C1249.310669,1113.224976 1246.817505,1127.328979 1241.455811,1140.242920 
	C1229.243652,1169.657227 1211.242310,1195.088867 1185.820557,1215.012695 
	C1160.450806,1234.895752 1132.165039,1247.786377 1100.399902,1253.144287 
	C1099.520630,1253.292603 1098.796509,1254.360840 1098.000000,1255.000000 
	C784.970642,1255.000000 471.941254,1255.000000 158.402374,1254.659790 
	C157.246307,1253.909180 156.646286,1253.260010 155.946396,1253.123779 
	C140.622101,1250.140747 125.798233,1245.760010 111.436562,1239.438232 
	C91.654999,1230.730591 73.701553,1219.428467 58.082634,1204.526611 
	C39.975647,1187.251099 25.317995,1167.350830 16.187639,1144.017212 
	C11.032228,1130.841919 7.981553,1116.844360 3.951023,1103.226562 
	C3.034833,1100.131104 1.987138,1097.074463 0.999993,1094.000000 
	C1.000000,783.970642 1.000000,473.941254 1.381262,163.365417 
	C2.171154,162.157623 2.871274,161.527496 2.945872,160.830460 
	C4.918757,142.395844 10.453475,124.942535 17.918703,108.109680 
	C30.845606,78.961670 51.096085,55.451935 76.306717,36.487499 
	C98.681404,19.656385 124.079376,8.881051 151.766830,3.800953 
	C154.587570,3.283404 157.259186,1.953130 160.000000,1.000000 
	C470.362701,1.000000 780.725403,1.000000 1091.636108,1.389889 
	C1093.683472,2.194581 1095.159546,2.775858 1096.687012,2.990796 
	C1100.277710,3.496032 1104.011597,3.380436 1107.478638,4.301852 
	C1125.846558,9.183289 1144.300537,14.097045 1160.584229,24.311337 
	C1171.183350,30.959803 1181.981567,37.676846 1191.250732,45.972061 
	C1206.686523,59.785980 1220.539795,75.135971 1230.576782,93.678101 
	C1240.611450,112.216019 1248.393799,131.427505 1252.140625,152.227341 
	C1252.622559,154.903107 1254.024292,157.413193 1255.000000,160.000000 
	C1255.000000,470.696045 1255.000000,781.392090 1254.754395,1092.555908 
	C1254.252319,1093.188599 1253.995972,1093.353394 1253.739624,1093.518311 
	C1254.159790,1093.678833 1254.579834,1093.839478 1255.000000,1094.000000 
M593.064087,784.688232 
	C584.048401,784.759644 575.032715,784.831055 565.171204,784.700378 
	C563.439514,784.766602 561.707886,784.832886 559.063538,784.682129 
	C531.047119,784.756226 503.030670,784.830383 474.345978,784.704773 
	C473.890381,784.769287 473.434753,784.833740 472.066956,784.678284 
	C465.383606,784.752441 458.700226,784.826660 451.223969,784.698730 
	C450.141663,784.766052 449.059387,784.833374 447.063904,784.685913 
	C429.714874,784.758179 412.365814,784.830444 394.171112,784.699524 
	C392.439453,784.765930 390.707794,784.832397 388.062836,784.685181 
	C362.993866,784.674561 337.924835,784.637268 312.855896,784.665161 
	C301.242889,784.678040 289.630035,784.817688 277.224121,784.697754 
	C276.141754,784.765503 275.059387,784.833191 273.063843,784.686157 
	C258.713318,784.763245 244.362778,784.840332 229.345123,784.723206 
	C228.891068,784.787415 228.437012,784.851624 227.076828,784.703796 
	C222.724548,784.765198 218.372269,784.826599 213.173828,784.688232 
	C211.449921,784.795044 209.725998,784.901855 207.274414,784.944275 
	C202.957947,786.190063 200.585861,789.146484 200.320328,793.534241 
	C200.022278,798.459534 202.790878,801.512634 207.496597,804.146484 
	C211.249268,804.420105 215.001892,804.932678 218.754593,804.933167 
	C493.691833,804.971802 768.629028,804.972717 1043.566284,804.907593 
	C1045.339478,804.907166 1047.112305,803.944702 1049.398560,803.038879 
	C1053.826294,801.341309 1056.143433,798.028198 1055.674927,793.393677 
	C1055.225098,788.943420 1052.982300,785.571777 1047.507446,784.754578 
	C1047.333740,784.806274 1047.160156,784.857910 1046.260498,784.689453 
	C1045.512451,784.761475 1044.764526,784.833496 1043.105591,784.705811 
	C1039.062866,784.771606 1035.020142,784.837402 1030.063232,784.693115 
	C974.369629,784.677368 918.676025,784.659790 862.982422,784.656189 
	C861.661133,784.656128 860.339783,784.811523 858.125061,784.691528 
	C855.075500,784.760864 852.025879,784.830261 848.063660,784.682739 
	C836.453674,784.669983 824.843506,784.621094 813.233643,784.652832 
	C795.495361,784.701294 777.757202,784.805420 759.271667,784.680420 
	C758.506226,784.750488 757.740845,784.820496 756.062256,784.676697 
	C739.380005,784.754395 722.697754,784.832031 705.169800,784.708191 
	C703.438660,784.771973 701.707581,784.835693 699.063599,784.683105 
	C683.629822,784.683105 668.195984,784.655701 652.762268,784.690308 
	C634.847473,784.730408 616.932800,784.824829 598.194275,784.692627 
	C596.788635,784.762573 595.383057,784.832581 593.064087,784.688232 
M206.598175,452.905792 
	C201.303558,455.848877 199.377075,459.399628 200.533035,464.084534 
	C201.720810,468.898346 205.080856,471.197662 211.042404,471.273346 
	C211.708679,471.281799 212.375107,471.278595 213.041473,471.278595 
	C444.602814,471.281494 676.164185,471.284973 907.725525,471.286194 
	C953.537964,471.286438 999.350403,471.297302 1045.162842,471.255005 
	C1053.106934,471.247650 1057.917969,465.179352 1054.905029,458.600677 
	C1053.773438,456.129700 1050.948242,454.434387 1048.441895,451.677063 
	C1043.828735,451.463104 1039.215698,451.062469 1034.602539,451.061890 
	C760.559753,451.027802 486.516968,451.023834 212.474197,451.083344 
	C210.685486,451.083740 208.896973,452.006134 206.598175,452.905792 
M629.301147,768.213013 
	C635.940491,767.716797 642.650513,767.675537 649.208496,766.655945 
	C743.520325,751.992676 795.903564,644.932434 749.795166,561.248413 
	C720.691345,508.426697 663.062866,479.699615 606.062988,489.599640 
	C533.864380,502.139465 483.944977,566.787231 489.938232,639.986084 
	C495.851990,712.214111 555.960938,767.881958 629.301147,768.213013 
z"/>
<path fill="#000000" opacity="1.000000" stroke="none" 
	d="
M159.531342,1.000000 
	C157.259186,1.953130 154.587570,3.283404 151.766830,3.800953 
	C124.079376,8.881051 98.681404,19.656385 76.306717,36.487499 
	C51.096085,55.451935 30.845606,78.961670 17.918703,108.109680 
	C10.453475,124.942535 4.918757,142.395844 2.945872,160.830460 
	C2.871274,161.527496 2.171154,162.157623 1.381262,162.909454 
	C1.000000,109.073669 1.000000,55.147343 1.000000,1.000000 
	C53.687355,1.000000 106.375015,1.000000 159.531342,1.000000 
z"/>
<path fill="#000000" opacity="1.000000" stroke="none" 
	d="
M1255.000000,159.531342 
	C1254.024292,157.413193 1252.622559,154.903107 1252.140625,152.227341 
	C1248.393799,131.427505 1240.611450,112.216019 1230.576782,93.678101 
	C1220.539795,75.135971 1206.686523,59.785980 1191.250732,45.972061 
	C1181.981567,37.676846 1171.183350,30.959803 1160.584229,24.311337 
	C1144.300537,14.097045 1125.846558,9.183289 1107.478638,4.301852 
	C1104.011597,3.380436 1100.277710,3.496032 1096.687012,2.990796 
	C1095.159546,2.775858 1093.683472,2.194581 1092.092041,1.389889 
	C1146.259399,1.000000 1200.518921,1.000000 1255.000000,1.000000 
	C1255.000000,53.687355 1255.000000,106.375015 1255.000000,159.531342 
z"/>
<path fill="#000000" opacity="1.000000" stroke="none" 
	d="
M0.999993,1094.468628 
	C1.987138,1097.074463 3.034833,1100.131104 3.951023,1103.226562 
	C7.981553,1116.844360 11.032228,1130.841919 16.187639,1144.017212 
	C25.317995,1167.350830 39.975647,1187.251099 58.082634,1204.526611 
	C73.701553,1219.428467 91.654999,1230.730591 111.436562,1239.438232 
	C125.798233,1245.760010 140.622101,1250.140747 155.946396,1253.123779 
	C156.646286,1253.260010 157.246307,1253.909180 157.946411,1254.659790 
	C105.738739,1255.000000 53.477478,1255.000000 1.000000,1255.000000 
	C1.000000,1201.645996 1.000000,1148.291626 0.999993,1094.468628 
z"/>
<path fill="#000000" opacity="1.000000" stroke="none" 
	d="
M1098.468628,1255.000000 
	C1098.796509,1254.360840 1099.520630,1253.292603 1100.399902,1253.144287 
	C1132.165039,1247.786377 1160.450806,1234.895752 1185.820557,1215.012695 
	C1211.242310,1195.088867 1229.243652,1169.657227 1241.455811,1140.242920 
	C1246.817505,1127.328979 1249.310669,1113.224976 1253.146362,1099.672729 
	C1253.305908,1099.108521 1253.873169,1098.659790 1254.625244,1098.078613 
	C1255.000000,1150.260376 1255.000000,1202.520630 1255.000000,1255.000000 
	C1202.979248,1255.000000 1150.958252,1255.000000 1098.468628,1255.000000 
z"/>
<path fill="#000000" opacity="1.000000" stroke="none" 
	d="
M1255.000000,1093.750000 
	C1254.579834,1093.839478 1254.159790,1093.678833 1253.739624,1093.518311 
	C1253.995972,1093.353394 1254.252319,1093.188599 1254.754395,1093.011841 
	C1255.000000,1093.000000 1255.000000,1093.500000 1255.000000,1093.750000 
z"/>
<path fill="#F0F0E9" opacity="1.000000" stroke="none" 
	d="
M628.849976,768.214844 
	C555.960938,767.881958 495.851990,712.214111 489.938232,639.986084 
	C483.944977,566.787231 533.864380,502.139465 606.062988,489.599640 
	C663.062866,479.699615 720.691345,508.426697 749.795166,561.248413 
	C795.903564,644.932434 743.520325,751.992676 649.208496,766.655945 
	C642.650513,767.675537 635.940491,767.716797 628.849976,768.214844 
M742.414734,635.273071 
	C744.137756,606.487122 736.541199,580.282776 718.933167,557.575684 
	C667.780090,491.609344 567.937988,499.452515 527.570679,572.503113 
	C516.699219,592.176636 511.834076,613.424927 513.784668,636.901184 
	C516.696777,669.712219 530.303955,697.222290 555.958923,717.926453 
	C603.153809,756.013855 669.582764,751.471375 711.268250,707.449951 
	C730.111206,687.551025 740.707092,663.698975 742.414734,635.273071 
z"/>
<path fill="#F1F1EB" opacity="1.000000" stroke="none" 
	d="
M1048.895020,452.385437 
	C1050.948242,454.434387 1053.773438,456.129700 1054.905029,458.600677 
	C1057.917969,465.179352 1053.106934,471.247650 1045.162842,471.255005 
	C999.350403,471.297302 953.537964,471.286438 907.725525,471.286194 
	C676.164185,471.284973 444.602814,471.281494 213.041473,471.278595 
	C212.375107,471.278595 211.708679,471.281799 211.042404,471.273346 
	C205.080856,471.197662 201.720810,468.898346 200.533035,464.084534 
	C199.377075,459.399628 201.303558,455.848877 207.311981,452.643555 
	C212.021957,452.312714 216.018127,452.184113 220.014297,452.183990 
	C487.645386,452.175629 755.276428,452.175690 1022.907532,452.187378 
	C1031.570068,452.187744 1040.232544,452.316528 1048.895020,452.385437 
z"/>
<path fill="#ECEDE7" opacity="1.000000" stroke="none" 
	d="
M395.016785,784.902710 
	C412.365814,784.830444 429.714874,784.758179 447.731079,785.065247 
	C449.604431,785.263306 450.810669,785.082031 452.016876,784.900818 
	C458.700226,784.826660 465.383606,784.752441 472.670837,785.021729 
	C473.854584,785.211670 474.434418,785.058105 475.014252,784.904541 
	C503.030670,784.830383 531.047119,784.756226 559.763428,785.076538 
	C562.314575,785.281433 564.165771,785.091919 566.017029,784.902405 
	C575.032715,784.831055 584.048401,784.759644 593.750366,785.074951 
	C595.963745,785.273010 597.490906,785.084290 599.018066,784.895630 
	C616.932800,784.824829 634.847473,784.730408 652.762268,784.690308 
	C668.195984,784.655701 683.629822,784.683105 699.763306,785.077026 
	C702.313904,785.283875 704.164673,785.096802 706.015503,784.909668 
	C722.697754,784.832031 739.380005,784.754395 756.703674,785.045288 
	C758.236389,785.237915 759.127686,785.061890 760.018982,784.885925 
	C777.757202,784.805420 795.495361,784.701294 813.233643,784.652832 
	C824.843506,784.621094 836.453674,784.669983 848.796082,785.091064 
	C852.691833,785.297668 855.855164,785.096008 859.018494,784.894409 
	C860.339783,784.811523 861.661133,784.656128 862.982422,784.656189 
	C918.676025,784.659790 974.369629,784.677368 1030.805664,785.101746 
	C1035.704224,785.308716 1039.860352,785.107056 1044.016479,784.905457 
	C1044.764526,784.833496 1045.512451,784.761475 1046.710205,784.967285 
	C1047.440796,785.156555 1047.721558,785.067932 1048.002319,784.979370 
	C1052.982300,785.571777 1055.225098,788.943420 1055.674927,793.393677 
	C1056.143433,798.028198 1053.826294,801.341309 1048.681641,803.269409 
	C1044.969116,803.580261 1041.973267,803.730957 1038.977539,803.731018 
	C774.182678,803.732361 509.387756,803.726746 244.592880,803.698364 
	C232.099777,803.697021 219.606705,803.486633 207.113617,803.373596 
	C202.790878,801.512634 200.022278,798.459534 200.320328,793.534241 
	C200.585861,789.146484 202.957947,786.190063 207.895645,785.243408 
	C210.351242,785.324280 212.185623,785.106140 214.019989,784.887939 
	C218.372269,784.826599 222.724548,784.765198 227.678146,785.040649 
	C228.857056,785.224182 229.434647,785.070801 230.012238,784.917419 
	C244.362778,784.840332 258.713318,784.763245 273.731140,785.065430 
	C275.604645,785.263123 276.810852,785.081482 278.017090,784.899902 
	C289.630035,784.817688 301.242889,784.678040 312.855896,784.665161 
	C337.924835,784.637268 362.993866,784.674561 388.763000,785.077942 
	C391.314392,785.281372 393.165588,785.092041 395.016785,784.902710 
z"/>
<path fill="#000000" opacity="1.000000" stroke="none" 
	d="
M1048.668457,452.031250 
	C1040.232544,452.316528 1031.570068,452.187744 1022.907532,452.187378 
	C755.276428,452.175690 487.645386,452.175629 220.014297,452.183990 
	C216.018127,452.184113 212.021957,452.312714 207.567078,452.439636 
	C208.896973,452.006134 210.685486,451.083740 212.474197,451.083344 
	C486.516968,451.023834 760.559753,451.027802 1034.602539,451.061890 
	C1039.215698,451.062469 1043.828735,451.463104 1048.668457,452.031250 
z"/>
<path fill="#000000" opacity="1.000000" stroke="none" 
	d="
M207.305115,803.760010 
	C219.606705,803.486633 232.099777,803.697021 244.592880,803.698364 
	C509.387756,803.726746 774.182678,803.732361 1038.977539,803.731018 
	C1041.973267,803.730957 1044.969116,803.580261 1048.425049,803.465698 
	C1047.112305,803.944702 1045.339478,804.907166 1043.566284,804.907593 
	C768.629028,804.972717 493.691833,804.971802 218.754593,804.933167 
	C215.001892,804.932678 211.249268,804.420105 207.305115,803.760010 
z"/>
<path fill="#F1F1EB" opacity="1.000000" stroke="none" 
	d="
M1043.561035,784.805664 
	C1039.860352,785.107056 1035.704224,785.308716 1031.262695,785.206787 
	C1035.020142,784.837402 1039.062866,784.771606 1043.561035,784.805664 
z"/>
<path fill="#F1F1EB" opacity="1.000000" stroke="none" 
	d="
M858.571777,784.792969 
	C855.855164,785.096008 852.691833,785.297668 849.252441,785.199463 
	C852.025879,784.830261 855.075500,784.760864 858.571777,784.792969 
z"/>
<path fill="#F1F1EB" opacity="1.000000" stroke="none" 
	d="
M394.593933,784.801147 
	C393.165588,785.092041 391.314392,785.281372 389.219666,785.184753 
	C390.707794,784.832397 392.439453,784.765930 394.593933,784.801147 
z"/>
<path fill="#F1F1EB" opacity="1.000000" stroke="none" 
	d="
M565.594116,784.801392 
	C564.165771,785.091919 562.314575,785.281433 560.219727,785.184998 
	C561.707886,784.832886 563.439514,784.766602 565.594116,784.801392 
z"/>
<path fill="#F1F1EB" opacity="1.000000" stroke="none" 
	d="
M705.592651,784.808960 
	C704.164673,785.096802 702.313904,785.283875 700.219727,785.185181 
	C701.707581,784.835693 703.438660,784.771973 705.592651,784.808960 
z"/>
<path fill="#F1F1EB" opacity="1.000000" stroke="none" 
	d="
M213.596909,784.788086 
	C212.185623,785.106140 210.351242,785.324280 208.259491,785.275574 
	C209.725998,784.901855 211.449921,784.795044 213.596909,784.788086 
z"/>
<path fill="#F1F1EB" opacity="1.000000" stroke="none" 
	d="
M598.606201,784.794067 
	C597.490906,785.084290 595.963745,785.273010 594.207031,785.182129 
	C595.383057,784.832581 596.788635,784.762573 598.606201,784.794067 
z"/>
<path fill="#F1F1EB" opacity="1.000000" stroke="none" 
	d="
M277.620605,784.798828 
	C276.810852,785.081482 275.604645,785.263123 274.187714,785.172791 
	C275.059387,784.833191 276.141754,784.765503 277.620605,784.798828 
z"/>
<path fill="#F1F1EB" opacity="1.000000" stroke="none" 
	d="
M451.620422,784.799805 
	C450.810669,785.082031 449.604431,785.263306 448.187653,785.172607 
	C449.059387,784.833374 450.141663,784.766052 451.620422,784.799805 
z"/>
<path fill="#F1F1EB" opacity="1.000000" stroke="none" 
	d="
M759.645325,784.783203 
	C759.127686,785.061890 758.236389,785.237915 757.160278,785.152222 
	C757.740845,784.820496 758.506226,784.750488 759.645325,784.783203 
z"/>
<path fill="#F1F1EB" opacity="1.000000" stroke="none" 
	d="
M474.680115,784.804688 
	C474.434418,785.058105 473.854584,785.211670 473.126953,785.131714 
	C473.434753,784.833740 473.890381,784.769287 474.680115,784.804688 
z"/>
<path fill="#F1F1EB" opacity="1.000000" stroke="none" 
	d="
M229.678680,784.820312 
	C229.434647,785.070801 228.857056,785.224182 228.131195,785.146667 
	C228.437012,784.851624 228.891068,784.787415 229.678680,784.820312 
z"/>
<path fill="#F1F1EB" opacity="1.000000" stroke="none" 
	d="
M1047.754883,784.866943 
	C1047.721558,785.067932 1047.440796,785.156555 1047.073242,785.077393 
	C1047.160156,784.857910 1047.333740,784.806274 1047.754883,784.866943 
z"/>
<path fill="#092216" opacity="1.000000" stroke="none" 
	d="
M513.889282,636.022827 
	C511.834076,613.424927 516.699219,592.176636 527.570679,572.503113 
	C567.937988,499.452515 667.780090,491.609344 718.933167,557.575684 
	C736.541199,580.282776 744.137756,606.487122 741.756226,635.645996 
	C665.361511,636.020264 589.625427,636.021545 513.889282,636.022827 
z"/>
<path fill="#B5E423" opacity="1.000000" stroke="none" 
	d="
M513.836975,636.462036 
	C589.625427,636.021545 665.361511,636.020264 741.568665,636.036499 
	C740.707092,663.698975 730.111206,687.551025 711.268250,707.449951 
	C669.582764,751.471375 603.153809,756.013855 555.958923,717.926453 
	C530.303955,697.222290 516.696777,669.712219 513.836975,636.462036 
z"/>
</svg>